<mxfile host="app.diagrams.net" modified="2023-08-25T13:37:14.172Z" agent="Mozilla/5.0 (X11; Linux x86_64; rv:103.0) Gecko/20100101 Firefox/103.0" etag="AP_AOewLnvIq7j-qIbf5" version="21.6.9" type="github">
  <diagram id="R2lEEEUBdFMjLlhIrx00" name="Page-1">
    <mxGraphModel dx="1434" dy="718" grid="1" gridSize="10" guides="1" tooltips="1" connect="1" arrows="1" fold="1" page="1" pageScale="1" pageWidth="850" pageHeight="1100" math="0" shadow="0" extFonts="Permanent Marker^https://fonts.googleapis.com/css?family=Permanent+Marker">
      <root>
        <mxCell id="0" />
        <mxCell id="1" parent="0" />
        <mxCell id="4-e0eDIvQEtgA4YIid3U-1" value="" style="whiteSpace=wrap;html=1;aspect=fixed;" vertex="1" parent="1">
          <mxGeometry x="40" y="160" width="80" height="80" as="geometry" />
        </mxCell>
        <mxCell id="4-e0eDIvQEtgA4YIid3U-2" value="" style="rhombus;whiteSpace=wrap;html=1;" vertex="1" parent="1">
          <mxGeometry x="160" y="160" width="80" height="80" as="geometry" />
        </mxCell>
        <mxCell id="4-e0eDIvQEtgA4YIid3U-3" value="" style="whiteSpace=wrap;html=1;aspect=fixed;" vertex="1" parent="1">
          <mxGeometry x="280" y="160" width="80" height="80" as="geometry" />
        </mxCell>
        <mxCell id="4-e0eDIvQEtgA4YIid3U-7" value="ESCOLA" style="text;strokeColor=none;align=center;fillColor=none;html=1;verticalAlign=middle;whiteSpace=wrap;rounded=0;" vertex="1" parent="1">
          <mxGeometry x="50" y="185" width="60" height="30" as="geometry" />
        </mxCell>
        <mxCell id="4-e0eDIvQEtgA4YIid3U-8" value="" style="rhombus;whiteSpace=wrap;html=1;" vertex="1" parent="1">
          <mxGeometry x="400" y="160" width="80" height="80" as="geometry" />
        </mxCell>
        <mxCell id="4-e0eDIvQEtgA4YIid3U-34" value="" style="edgeStyle=orthogonalEdgeStyle;rounded=0;orthogonalLoop=1;jettySize=auto;html=1;" edge="1" parent="1" source="4-e0eDIvQEtgA4YIid3U-9" target="4-e0eDIvQEtgA4YIid3U-27">
          <mxGeometry relative="1" as="geometry" />
        </mxCell>
        <mxCell id="4-e0eDIvQEtgA4YIid3U-9" value="" style="whiteSpace=wrap;html=1;aspect=fixed;" vertex="1" parent="1">
          <mxGeometry x="520" y="160" width="80" height="80" as="geometry" />
        </mxCell>
        <mxCell id="4-e0eDIvQEtgA4YIid3U-10" value="" style="rhombus;whiteSpace=wrap;html=1;" vertex="1" parent="1">
          <mxGeometry x="520" y="300" width="80" height="80" as="geometry" />
        </mxCell>
        <mxCell id="4-e0eDIvQEtgA4YIid3U-11" value="" style="whiteSpace=wrap;html=1;aspect=fixed;" vertex="1" parent="1">
          <mxGeometry x="520" y="430" width="80" height="80" as="geometry" />
        </mxCell>
        <mxCell id="4-e0eDIvQEtgA4YIid3U-12" value="" style="rhombus;whiteSpace=wrap;html=1;" vertex="1" parent="1">
          <mxGeometry x="280" y="280" width="80" height="80" as="geometry" />
        </mxCell>
        <mxCell id="4-e0eDIvQEtgA4YIid3U-38" value="" style="edgeStyle=orthogonalEdgeStyle;rounded=0;orthogonalLoop=1;jettySize=auto;html=1;" edge="1" parent="1" source="4-e0eDIvQEtgA4YIid3U-13" target="4-e0eDIvQEtgA4YIid3U-26">
          <mxGeometry relative="1" as="geometry" />
        </mxCell>
        <mxCell id="4-e0eDIvQEtgA4YIid3U-13" value="" style="whiteSpace=wrap;html=1;aspect=fixed;" vertex="1" parent="1">
          <mxGeometry x="280" y="430" width="80" height="80" as="geometry" />
        </mxCell>
        <mxCell id="4-e0eDIvQEtgA4YIid3U-14" value="" style="rhombus;whiteSpace=wrap;html=1;" vertex="1" parent="1">
          <mxGeometry x="400" y="420" width="80" height="80" as="geometry" />
        </mxCell>
        <mxCell id="4-e0eDIvQEtgA4YIid3U-32" value="" style="edgeStyle=orthogonalEdgeStyle;rounded=0;orthogonalLoop=1;jettySize=auto;html=1;" edge="1" parent="1" source="4-e0eDIvQEtgA4YIid3U-15" target="4-e0eDIvQEtgA4YIid3U-21">
          <mxGeometry relative="1" as="geometry" />
        </mxCell>
        <mxCell id="4-e0eDIvQEtgA4YIid3U-15" value="&lt;div&gt;TURMAS&lt;/div&gt;" style="text;strokeColor=none;align=center;fillColor=none;html=1;verticalAlign=middle;whiteSpace=wrap;rounded=0;" vertex="1" parent="1">
          <mxGeometry x="290" y="180" width="60" height="30" as="geometry" />
        </mxCell>
        <mxCell id="4-e0eDIvQEtgA4YIid3U-17" value="AULA" style="text;strokeColor=none;align=center;fillColor=none;html=1;verticalAlign=middle;whiteSpace=wrap;rounded=0;" vertex="1" parent="1">
          <mxGeometry x="530" y="180" width="60" height="30" as="geometry" />
        </mxCell>
        <mxCell id="4-e0eDIvQEtgA4YIid3U-18" value="SALA" style="text;strokeColor=none;align=center;fillColor=none;html=1;verticalAlign=middle;whiteSpace=wrap;rounded=0;" vertex="1" parent="1">
          <mxGeometry x="290" y="455" width="60" height="30" as="geometry" />
        </mxCell>
        <mxCell id="4-e0eDIvQEtgA4YIid3U-36" value="" style="edgeStyle=orthogonalEdgeStyle;rounded=0;orthogonalLoop=1;jettySize=auto;html=1;" edge="1" parent="1" source="4-e0eDIvQEtgA4YIid3U-19" target="4-e0eDIvQEtgA4YIid3U-28">
          <mxGeometry relative="1" as="geometry" />
        </mxCell>
        <mxCell id="4-e0eDIvQEtgA4YIid3U-19" value="PROFESOR" style="text;strokeColor=none;align=center;fillColor=none;html=1;verticalAlign=middle;whiteSpace=wrap;rounded=0;" vertex="1" parent="1">
          <mxGeometry x="530" y="455" width="60" height="30" as="geometry" />
        </mxCell>
        <mxCell id="4-e0eDIvQEtgA4YIid3U-20" value="&lt;div&gt;&lt;br&gt;&lt;/div&gt;&lt;div&gt;TEM&lt;/div&gt;" style="text;strokeColor=none;align=center;fillColor=none;html=1;verticalAlign=middle;whiteSpace=wrap;rounded=0;" vertex="1" parent="1">
          <mxGeometry x="170" y="180" width="60" height="30" as="geometry" />
        </mxCell>
        <mxCell id="4-e0eDIvQEtgA4YIid3U-33" value="" style="edgeStyle=orthogonalEdgeStyle;rounded=0;orthogonalLoop=1;jettySize=auto;html=1;" edge="1" parent="1" source="4-e0eDIvQEtgA4YIid3U-21" target="4-e0eDIvQEtgA4YIid3U-17">
          <mxGeometry relative="1" as="geometry" />
        </mxCell>
        <mxCell id="4-e0eDIvQEtgA4YIid3U-21" value="TEM" style="text;strokeColor=none;align=center;fillColor=none;html=1;verticalAlign=middle;whiteSpace=wrap;rounded=0;" vertex="1" parent="1">
          <mxGeometry x="410" y="190" width="60" height="30" as="geometry" />
        </mxCell>
        <mxCell id="4-e0eDIvQEtgA4YIid3U-24" value="" style="line;strokeWidth=2;html=1;" vertex="1" parent="1">
          <mxGeometry x="120" y="195" width="40" height="10" as="geometry" />
        </mxCell>
        <mxCell id="4-e0eDIvQEtgA4YIid3U-25" value="" style="line;strokeWidth=2;html=1;" vertex="1" parent="1">
          <mxGeometry x="240" y="195" width="40" height="10" as="geometry" />
        </mxCell>
        <mxCell id="4-e0eDIvQEtgA4YIid3U-39" value="" style="edgeStyle=orthogonalEdgeStyle;rounded=0;orthogonalLoop=1;jettySize=auto;html=1;" edge="1" parent="1" source="4-e0eDIvQEtgA4YIid3U-26" target="4-e0eDIvQEtgA4YIid3U-15">
          <mxGeometry relative="1" as="geometry" />
        </mxCell>
        <mxCell id="4-e0eDIvQEtgA4YIid3U-26" value="TEM" style="text;strokeColor=none;align=center;fillColor=none;html=1;verticalAlign=middle;whiteSpace=wrap;rounded=0;" vertex="1" parent="1">
          <mxGeometry x="290" y="305" width="60" height="30" as="geometry" />
        </mxCell>
        <mxCell id="4-e0eDIvQEtgA4YIid3U-35" value="" style="edgeStyle=orthogonalEdgeStyle;rounded=0;orthogonalLoop=1;jettySize=auto;html=1;" edge="1" parent="1" source="4-e0eDIvQEtgA4YIid3U-27" target="4-e0eDIvQEtgA4YIid3U-19">
          <mxGeometry relative="1" as="geometry" />
        </mxCell>
        <mxCell id="4-e0eDIvQEtgA4YIid3U-27" value="TEM" style="text;strokeColor=none;align=center;fillColor=none;html=1;verticalAlign=middle;whiteSpace=wrap;rounded=0;" vertex="1" parent="1">
          <mxGeometry x="530" y="325" width="60" height="30" as="geometry" />
        </mxCell>
        <mxCell id="4-e0eDIvQEtgA4YIid3U-37" value="" style="edgeStyle=orthogonalEdgeStyle;rounded=0;orthogonalLoop=1;jettySize=auto;html=1;" edge="1" parent="1" source="4-e0eDIvQEtgA4YIid3U-28" target="4-e0eDIvQEtgA4YIid3U-18">
          <mxGeometry relative="1" as="geometry" />
        </mxCell>
        <mxCell id="4-e0eDIvQEtgA4YIid3U-28" value="TEM" style="text;strokeColor=none;align=center;fillColor=none;html=1;verticalAlign=middle;whiteSpace=wrap;rounded=0;" vertex="1" parent="1">
          <mxGeometry x="410" y="445" width="60" height="30" as="geometry" />
        </mxCell>
      </root>
    </mxGraphModel>
  </diagram>
</mxfile>
